<?xml version="1.0" encoding="utf-8"?>
<!-- Svg Vector Icons : http://www.onlinewebfonts.com/icon -->
<!DOCTYPE svg PUBLIC "-//W3C//DTD SVG 1.1//EN" "http://www.w3.org/Graphics/SVG/1.1/DTD/svg11.dtd">
<svg version="1.1" xmlns="http://www.w3.org/2000/svg" xmlns:xlink="http://www.w3.org/1999/xlink" x="0px" y="0px" viewBox="0 0 1000 1000" enable-background="new 0 0 1000 1000" xml:space="preserve">
<metadata> Svg Vector Icons : http://www.onlinewebfonts.com/icon </metadata>
<g><path d="M776.1,596.2c14.4,7.2,21.6,19.5,21.6,36.7v139.4v24.9c0,10.8-3.2,20.2-9.7,28.1c-6.5,7.9-14.8,11.9-24.9,11.9H232.6c-9.4,0-17.3-4-23.8-11.9c-6.5-7.9-9.7-17.3-9.7-28.1v-24.9V632.9c0-17.3,7.2-29.5,21.6-36.7L369.8,527l58.3-27c-27.4-16.6-48.3-40.3-62.7-71.3c-13.7-27.4-20.5-56.5-20.5-87.5c0-9.4,0.7-18.4,2.2-27c1.4-8.6,3.2-16.9,5.4-24.9c10.1-36.7,28.3-67,54.6-90.8c26.3-23.8,56.7-35.7,91.3-35.7c35.3,0,66.3,12.2,92.9,36.7c26.7,24.5,44.7,55.5,54,92.9c3.6,18,5.4,34.2,5.4,48.6c0,28.8-5.8,56.5-17.3,83.2c-14.4,32.4-35.3,56.9-62.7,73.5l61.6,29.2L776.1,596.2L776.1,596.2z M199.1,550.8c-15.9,7.2-28.3,18.2-37.3,33c-9,14.8-13.5,31.1-13.5,49.2v139.4H37c-7.9,0-14.4-3.1-19.4-9.2c-5-6.1-7.6-13.9-7.6-23.2V608c0-15.9,5.8-25.9,17.3-30.3L194.8,500c-20.2-12.2-36.4-29.7-48.6-52.4s-18.4-48.1-18.4-76.2c0-19.4,3.2-38,9.7-55.6c6.5-17.6,15.3-33,26.5-45.9c11.2-13,24.1-23.2,38.9-30.8c14.8-7.6,30.8-11.3,48.1-11.3c11.5,0,22.3,1.8,32.4,5.4c10.1,3.6,19.8,8.3,29.2,14.1c-12.2,30.3-18.4,61.6-18.4,94c0,25.2,3.6,49.5,10.8,72.9c7.2,23.4,17.3,44.5,30.3,63.2c-7.9,8.6-16.2,15.5-24.9,20.5L199.1,550.8z M972.7,577.8c11.5,5.8,17.3,15.9,17.3,30.3v131.8c0,9.4-2.5,17.1-7.6,23.2c-5,6.1-11.5,9.2-19.5,9.2H848.4V632.9c0-18-4.5-34.4-13.5-49.2c-9-14.8-21.1-25.8-36.2-33l-107-50.8c-10.1-5.8-19.8-14.1-29.2-24.9c12.2-18.7,21.8-39.4,28.6-62.1c6.8-22.7,10.3-46.6,10.3-71.9c0-16.6-1.4-32.4-4.3-47.5c-2.9-15.1-7.2-29.9-13-44.3c9.4-6.5,19.4-11.7,30.3-15.7c10.8-4,22-5.9,33.5-5.9c17.3,0,33.5,3.8,48.6,11.3s28.3,17.8,39.4,30.8c11.2,13,20,28.3,26.5,45.9c6.5,17.6,9.7,36.2,9.7,55.6c0,27.4-6.1,52.4-18.4,75.1c-12.2,22.7-27.7,40.2-46.5,52.4L972.7,577.8L972.7,577.8z"/></g>
</svg>